<svg width="30" height="30" viewBox="0 0 30 30" fill="none" xmlns="http://www.w3.org/2000/svg">
<g clip-path="url(#clip0_230_446)">
<rect width="30" height="30" rx="15" fill="#D6E4EF"/>
<g clip-path="url(#clip1_230_446)">
<path d="M14.9906 25.2875C14.1531 25.2875 13.5531 25.0812 13.3906 24.9375L13.2844 24.8437V22.2312H16.7156L16.6969 24.8L16.6094 24.8875C16.4281 25.0812 15.8406 25.2875 14.9906 25.2875Z" fill="white"/>
<path d="M16.3969 22.5375L16.3844 24.6687C16.2906 24.7687 15.8094 24.9687 14.9906 24.9687C14.1469 24.9687 13.6656 24.7562 13.5969 24.7V22.5375H16.3969ZM17.0281 21.9125H16.3969H13.5906H12.9656V22.5375V24.7V24.9812L13.1719 25.1687C13.4031 25.375 14.0656 25.6 14.9844 25.6C15.8219 25.6 16.5406 25.4062 16.8281 25.1062L16.9969 24.925V24.675L17.0094 22.5437L17.0281 21.9125Z" fill="#00559D"/>
<path d="M11.6969 26.0688C11.9781 26.0813 12.4031 26.0688 12.9219 26.05C13.4781 26.0313 14.1344 26.0063 14.8469 26.0063C15.5531 26.0063 16.1844 26.0125 16.7156 26.0188C17.3781 26.025 17.8906 26.0313 18.1844 26.0188C18.2281 26.0188 18.2594 26.0125 18.2969 26.0125C18.1782 25.825 17.9531 25.525 17.6094 25.225C17.7906 25.0188 17.5969 24.75 17.3719 24.6C17.2969 24.55 17.1656 24.5 16.9781 24.4563V24.625V24.7C16.9781 25.3063 15.9719 25.5813 14.9781 25.5813C13.9844 25.5813 12.9781 25.3125 12.9781 24.7V24.4875C12.8281 24.525 12.7156 24.5625 12.6406 24.6C12.3781 24.7375 12.2406 25.0438 12.3594 25.2688C12.1594 25.4125 11.8656 25.825 11.6969 26.0688Z" fill="#00559D"/>
<path d="M24.8719 13.25C24.8719 18.7 20.4531 23.125 14.9969 23.125C9.54689 23.125 5.12814 18.7063 5.12814 13.25C5.12814 7.8 9.54689 3.375 14.9969 3.375C20.4531 3.375 24.8719 7.8 24.8719 13.25Z" fill="white"/>
<path fill-rule="evenodd" clip-rule="evenodd" d="M14.9969 3.6875C9.71974 3.6875 5.44064 7.97233 5.44064 13.25C5.44064 18.5338 9.71961 22.8125 14.9969 22.8125C20.2804 22.8125 24.5594 18.5275 24.5594 13.25C24.5594 7.97246 20.2804 3.6875 14.9969 3.6875ZM4.81564 13.25C4.81564 7.62767 9.37405 3.0625 14.9969 3.0625C20.6259 3.0625 25.1844 7.62754 25.1844 13.25C25.1844 18.8725 20.6259 23.4375 14.9969 23.4375C9.37417 23.4375 4.81564 18.8787 4.81564 13.25Z" fill="#00559D"/>
<path d="M7.20941 13.025C7.28441 12.0312 7.95941 11.9375 8.97191 11.7937C9.98441 11.65 11.8157 11.5125 14.7844 11.5125C17.7532 11.5125 19.6844 11.5687 21.1282 11.7375C22.5719 11.9062 22.7719 12.2437 22.8219 12.8687C22.8719 13.4937 22.8157 14.9875 22.7407 15.5437C22.6657 16.1 22.4657 16.5312 21.7844 16.8562C21.0969 17.1812 18.7282 18 14.9344 17.975C11.1344 17.9562 8.77191 17.1687 8.07816 16.7937C7.38441 16.4187 7.25316 16.15 7.18441 15.5875C7.10941 15.0312 7.13441 14.0187 7.20941 13.025Z" fill="#00559D"/>
<path d="M12.9844 14.6562C12.9344 15.1375 12.4969 15.4875 12.0157 15.4375C11.5344 15.3875 11.1844 14.95 11.2344 14.4687C11.2844 13.9875 11.7219 13.6375 12.2031 13.6875C12.6844 13.7437 13.0344 14.175 12.9844 14.6562Z" fill="#FFE532"/>
<path d="M18.8157 14.675C18.7657 15.1563 18.3282 15.5063 17.8469 15.4563C17.3657 15.4063 17.0157 14.975 17.0657 14.4875C17.1157 14.0063 17.5469 13.6563 18.0344 13.7063C18.5157 13.7625 18.8657 14.1938 18.8157 14.675Z" fill="#FFE532"/>
<path fill-rule="evenodd" clip-rule="evenodd" d="M8.58598 10.0621C8.57022 8.92804 8.59704 7.27895 8.76668 5.21191L9.38959 5.26303C9.22172 7.30849 9.19542 8.93754 9.21091 10.0534C9.21866 10.6114 9.23686 11.041 9.25304 11.3302C9.26112 11.4748 9.2687 11.5843 9.27421 11.6571C9.27697 11.6935 9.27921 11.7208 9.28074 11.7387L9.28247 11.7586L9.28289 11.7632L9.28298 11.7642C9.28298 11.7642 9.28299 11.7643 8.97188 11.7937C8.66077 11.8232 8.66077 11.8231 8.66076 11.823L8.66054 11.8207L8.65999 11.8146L8.658 11.7918C8.6563 11.7719 8.6539 11.7427 8.651 11.7043C8.64518 11.6274 8.63733 11.5138 8.62901 11.3651C8.61237 11.0675 8.59385 10.6292 8.58598 10.0621Z" fill="#00559D"/>
<path fill-rule="evenodd" clip-rule="evenodd" d="M20.8533 10.0282C20.8192 8.90239 20.7229 7.26503 20.4742 5.22532L21.0946 5.14966C21.3458 7.20994 21.4434 8.86633 21.478 10.0093C21.4953 10.5808 21.4969 11.0239 21.4941 11.3251C21.4928 11.4757 21.4903 11.5908 21.4881 11.6687C21.487 11.7077 21.4861 11.7373 21.4853 11.7575L21.4844 11.7805L21.4842 11.7866L21.4841 11.789C21.4841 11.7891 21.4841 11.7891 21.1719 11.775C20.8597 11.7609 20.8597 11.7609 20.8597 11.7609L20.8598 11.7597L20.86 11.755L20.8607 11.7346C20.8614 11.7163 20.8623 11.6885 20.8634 11.6515C20.8654 11.5773 20.8678 11.466 20.8692 11.3194C20.8719 11.026 20.8703 10.5911 20.8533 10.0282Z" fill="#00559D"/>
<path fill-rule="evenodd" clip-rule="evenodd" d="M10.6095 22.2465L10.472 17.434L11.0968 17.4161L11.2343 22.2286L10.6095 22.2465Z" fill="#00559D"/>
<path fill-rule="evenodd" clip-rule="evenodd" d="M18.4981 22.1724L18.9231 17.3724L19.5457 17.4276L19.1207 22.2276L18.4981 22.1724Z" fill="#00559D"/>
<path d="M7.6719 33.875C7.64065 33.5625 7.6344 27.8938 7.6344 27.85C7.65315 27.1875 8.0594 26.9 8.6594 26.675C9.2844 26.4375 10.4656 26.1438 10.6532 26.1313L10.7157 26.125L10.7906 26.15L10.8594 26.175C10.9844 26.2313 11.1219 26.2875 11.4656 26.3375C11.5781 26.3563 11.7344 26.3562 11.9344 26.3562C12.2031 26.3562 12.5469 26.3438 12.9469 26.3313C13.4969 26.3125 14.1531 26.2875 14.8594 26.2875C15.5219 26.2875 16.1156 26.2938 16.6219 26.2938C16.6219 26.2938 17.4531 26.3 17.7219 26.3C17.9156 26.3 18.0782 26.3 18.2094 26.2938C18.5844 26.2813 18.8032 26.2188 18.9657 26.175C19.0469 26.15 19.0969 26.1375 19.1281 26.1313H19.1344C19.4657 26.1313 20.7531 26.4 21.3719 26.6188C21.9906 26.8375 22.2657 27.1187 22.3469 27.6187C22.3969 27.9312 22.3594 33.7875 22.3594 33.8313L22.3407 34.125L7.7094 34.1375L7.6719 33.875Z" fill="white"/>
<path d="M10.6719 26.4438C10.6969 26.45 10.7219 26.4625 10.7469 26.475C10.8656 26.525 11.0219 26.6 11.4156 26.6563C11.5344 26.675 11.7094 26.6813 11.9281 26.6813C12.2031 26.6813 12.5469 26.6688 12.9469 26.6563C13.4969 26.6375 14.1469 26.6125 14.8531 26.6125C15.5531 26.6125 16.1844 26.6188 16.7156 26.625C17.1094 26.6313 17.4406 26.6313 17.7157 26.6313C17.9156 26.6313 18.0782 26.6313 18.2094 26.625C18.6219 26.6125 18.8719 26.5438 19.0406 26.4938C19.0969 26.4813 19.1406 26.4625 19.1719 26.4625C19.3844 26.4625 20.6532 26.7188 21.2594 26.9375C21.8344 27.1438 21.9782 27.3625 22.0282 27.6938C22.0594 27.9 22.0532 33.525 22.0344 33.8375L7.97815 33.85C7.95315 33.6 7.9344 28.0688 7.94065 27.8688C7.95315 27.4313 8.1594 27.2063 8.76565 26.975C9.3969 26.725 10.5469 26.45 10.6719 26.4438ZM10.7469 25.8063L10.6281 25.8188C10.4031 25.8375 9.17815 26.1438 8.5469 26.3813C7.95315 26.6063 7.3469 26.9563 7.3219 27.8438C7.3219 27.8875 7.32815 33.5625 7.3594 33.9063L7.41565 34.4688H7.9844L22.0407 34.4563H22.6282L22.6594 33.8688C22.6594 33.825 22.7031 27.9313 22.6469 27.5875C22.5469 26.9688 22.1906 26.6 21.4657 26.3375C20.8469 26.1188 19.4907 25.8313 19.1656 25.8313H19.1156L19.0656 25.8375C19.0219 25.8438 18.9657 25.8625 18.8907 25.8813C18.7282 25.925 18.5281 25.9813 18.1906 25.9938C18.0656 26 17.9094 26 17.7157 26C17.4469 26 17.1156 26 16.7344 25.9938H16.6032C16.0969 25.9875 15.5031 25.9875 14.8469 25.9875C14.1219 25.9875 13.4531 26.0125 12.9219 26.0313C12.5281 26.0438 12.1906 26.0563 11.9219 26.0563C11.6719 26.0563 11.5532 26.0438 11.4969 26.0375C11.1907 25.9938 11.0844 25.95 10.9906 25.9063C10.9281 25.8813 10.8906 25.8625 10.8531 25.85L10.7469 25.8063Z" fill="#00559D"/>
</g>
</g>
<rect x="0.5" y="0.5" width="29" height="29" rx="14.5" stroke="#00559D" stroke-miterlimit="10"/>
<defs>
<clipPath id="clip0_230_446">
<rect width="30" height="30" rx="15" fill="white"/>
</clipPath>
<clipPath id="clip1_230_446">
<rect width="30" height="30" fill="white"/>
</clipPath>
</defs>
</svg>
