<svg width="16" height="16" viewBox="0 0 16 16" fill="none" xmlns="http://www.w3.org/2000/svg">
<path fill-rule="evenodd" clip-rule="evenodd" d="M8.87012 7.29C8.05012 6.942 7.00012 7.725 6.53012 9.039C6.06012 10.353 6.32012 11.701 7.16012 12.049C8.00012 12.396 9.00012 11.614 9.50012 10.3C10.0001 8.975 9.69012 7.638 8.87012 7.29ZM15.0001 2L12.0601 11.896L11.3961 14H8.54812L8.93012 12.743C8.54112 13.164 8.07812 13.496 7.57012 13.722C6.71812 14.125 5.74512 14.089 4.92012 13.623C4.10512 13.109 3.55612 12.215 3.43012 11.201C3.27412 10.076 3.47512 8.927 4.00012 7.942C4.49712 6.92 5.30212 6.115 6.28012 5.661C6.54912 5.54 6.83112 5.456 7.12012 5.411C7.33612 5.394 7.55412 5.394 7.77012 5.411C8.32912 5.396 8.88312 5.523 9.39012 5.78C9.84512 6.02 10.2261 6.397 10.4901 6.866L11.9101 2H15.0001ZM5.54012 2L2.00012 5.998V2H5.54012Z" fill="black"/>
</svg>
