<svg width="16" height="16" viewBox="0 0 16 16" fill="none" xmlns="http://www.w3.org/2000/svg">
<path fill-rule="evenodd" clip-rule="evenodd" d="M10.7209 7.25682C10.5679 6.86382 10.3509 6.50082 10.0799 6.18182C9.80888 5.85282 9.47687 5.58182 9.10287 5.38682C8.33787 4.98282 7.42987 4.98282 6.66488 5.38682C6.28687 5.56782 5.95087 5.82682 5.67788 6.14982C5.39387 6.46282 5.16887 6.82682 5.01587 7.22482C4.84687 7.63682 4.76187 8.07882 4.76287 8.52582C4.76187 8.95582 4.84087 9.38282 4.99388 9.78282C5.15188 10.1738 5.36787 10.5368 5.63587 10.8588C5.91188 11.1848 6.24187 11.4578 6.61287 11.6648C7.38087 12.0668 8.29187 12.0668 9.06087 11.6648C9.43187 11.4728 9.76287 11.2098 10.0379 10.8908C10.3179 10.5718 10.5449 10.2088 10.7099 9.81582C10.8689 9.40382 10.9509 8.96682 10.9519 8.52582C10.9539 8.09182 10.8759 7.66082 10.7209 7.25682ZM8.60888 14.2668C8.53688 14.1258 8.49388 13.9728 8.48288 13.8148C8.46688 13.6468 8.46688 13.4778 8.48288 13.3098L8.19888 13.3628H7.87288C7.62988 13.3698 7.38588 13.3448 7.14888 13.2878C7.14888 13.6768 7.27488 14.0548 7.50588 14.3628C7.74588 14.6738 8.08388 14.8908 8.46187 14.9758C8.62488 15.0078 8.79188 15.0078 8.95588 14.9758C9.11788 14.9348 9.27688 14.8768 9.42887 14.8038C9.24088 14.7828 9.05988 14.7168 8.90287 14.6108C8.78088 14.5208 8.67988 14.4028 8.60888 14.2668ZM13.9249 4.62282C13.7709 4.53682 13.5939 4.50682 13.4209 4.53682C13.1869 4.55782 12.9569 4.61082 12.7379 4.69782C12.4859 4.77582 12.2429 4.87982 12.0129 5.00982C11.7939 5.11782 11.5829 5.24382 11.3829 5.38682C11.8099 5.79982 12.0789 6.35682 12.1389 6.95582L13.1899 6.68782C13.3719 6.68882 13.5439 6.60082 13.6519 6.44982C13.7749 6.27982 13.8639 6.08582 13.9149 5.88082C13.9689 5.65882 13.9969 5.43182 13.9989 5.20282C14.0069 5.00682 13.9819 4.81082 13.9249 4.62282ZM12.9059 11.9978C12.7709 11.7208 12.6099 11.4568 12.4229 11.2128C12.2679 10.9868 12.0629 10.8038 11.8239 10.6758C11.6079 11.2188 11.2979 11.7178 10.9099 12.1488C10.9839 12.3218 11.0269 12.5078 11.0359 12.6958C11.0019 12.8068 11.0309 12.9268 11.1099 13.0088C11.2079 13.1088 11.3259 13.1848 11.4559 13.2348C11.6149 13.2808 11.7759 13.3178 11.9399 13.3418C12.1129 13.3748 12.2879 13.3968 12.4649 13.4058C12.6079 13.4218 12.7519 13.4218 12.8959 13.4058C12.9849 13.3918 13.0639 13.3418 13.1169 13.2668C13.2009 13.1158 13.2209 12.9368 13.1689 12.7718C13.1079 12.5048 13.0199 12.2458 12.9059 11.9978ZM6.54988 3.20382C6.56988 3.31082 6.56988 3.41982 6.54988 3.52682C6.51088 3.62682 6.48188 3.73182 6.46588 3.83782C6.47788 3.88682 6.50788 3.92882 6.54988 3.95582C6.58388 4.01082 6.61188 4.06882 6.63388 4.12882C6.84788 4.12982 7.06088 4.09282 7.26388 4.02082C7.46988 3.94682 7.68688 3.90982 7.90488 3.91282C8.33588 3.92582 8.76388 3.99782 9.17588 4.12882C9.19788 4.06582 9.22888 4.00782 9.27087 3.95582C9.28488 3.92182 9.28488 3.88282 9.27087 3.84882C9.27288 3.73982 9.24688 3.63282 9.19788 3.53682C9.14688 3.42982 9.12188 3.31282 9.12388 3.19382C9.12587 3.05682 9.16188 2.92382 9.22888 2.80582C9.29988 2.68682 9.33588 2.54882 9.33388 2.40782C9.41788 2.42282 9.38688 2.36882 9.23988 2.24682L9.01888 2.07482L8.71388 1.90282C8.62488 1.85082 8.54288 1.78582 8.47188 1.70982L8.30387 1.49382L8.17788 1.26882C8.13088 1.19982 8.07788 1.13482 8.02087 1.07482C7.98588 1.03382 7.93688 1.00782 7.88388 0.999817C7.82388 1.00182 7.76688 1.02882 7.72588 1.07482C7.65888 1.12882 7.60288 1.19482 7.55788 1.26882C7.51088 1.34082 7.46888 1.41582 7.43188 1.49382C7.37788 1.57082 7.31888 1.64282 7.25388 1.70982C7.16788 1.78582 7.07288 1.85182 6.96988 1.90282L6.70688 2.07482L6.44488 2.27882C6.39388 2.31982 6.36088 2.37682 6.34988 2.44082C6.34888 2.57382 6.38488 2.70382 6.45487 2.81682C6.51788 2.93582 6.55088 3.06882 6.54988 3.20382ZM4.84687 12.1158C4.47088 11.6878 4.16287 11.2008 3.93288 10.6758V10.7298C3.79088 10.7958 3.66188 10.8918 3.55488 11.0088C3.41587 11.1528 3.29188 11.3108 3.18788 11.4818C3.07288 11.6548 2.97488 11.8388 2.89288 12.0298C2.81488 12.2028 2.75187 12.3828 2.70388 12.5678C2.65887 12.7138 2.63487 12.8658 2.63087 13.0198C2.62988 13.0218 2.62988 13.0248 2.62988 13.0278C2.60287 13.2218 2.73487 13.4008 2.92488 13.4278C3.06788 13.4438 3.21288 13.4438 3.35588 13.4278C3.52887 13.4168 3.69987 13.3958 3.86987 13.3628C4.03787 13.3208 4.20287 13.2668 4.36487 13.2018C4.48987 13.1498 4.60388 13.0728 4.69988 12.9768C4.78388 12.8968 4.81288 12.7748 4.77387 12.6638C4.76887 12.5678 4.76887 12.4708 4.77387 12.3738C4.78888 12.2848 4.81288 12.1988 4.84687 12.1158ZM2.80888 6.68782C2.62688 6.68882 2.45488 6.60082 2.34688 6.44982C2.22388 6.27982 2.13488 6.08582 2.08388 5.88082C2.03088 5.65882 2.00188 5.43182 1.99988 5.20282C1.99688 5.00782 2.02188 4.81182 2.07388 4.62282C2.23088 4.53582 2.41188 4.50582 2.58887 4.53682C2.82288 4.55882 3.05187 4.61282 3.27188 4.69782C3.51888 4.77782 3.75888 4.88182 3.98588 5.00982C4.20487 5.11782 4.41587 5.24382 4.61687 5.38682C4.18887 5.79982 3.91987 6.35682 3.85987 6.95582L2.80888 6.68782Z" fill="black"/>
</svg>
